<svg width="120" height="120" viewBox="0 0 120 120" fill="none" xmlns="http://www.w3.org/2000/svg">
  <defs>
    <linearGradient id="paint0_linear" x1="14" y1="18" x2="106" y2="102" gradientUnits="userSpaceOnUse">
      <stop stop-color="#724CFF" />
      <stop offset="1" stop-color="#4529AE" />
    </linearGradient>
  </defs>
  <rect x="10" y="10" width="100" height="100" rx="28" fill="url(#paint0_linear)" />
  <path
    d="M60 33C47.849 33 38 42.849 38 55C38 67.151 47.849 77 60 77C62.62 77 65.135 76.582 67.5 75.818V87H75.5V70.5C82.84 66.193 87.5 57.902 87.5 48C87.5 39.716 82.864 33 74 33C68.97 33 64.808 35.404 62.5 39.386C60.7 35.155 57.002 33 51.5 33C44.309 33 40 38.319 40 46.5C40 58.319 50.159 66 60 66"
    stroke="white"
    stroke-width="6"
    stroke-linecap="round"
    stroke-linejoin="round"
  />
  <circle cx="60" cy="92" r="7" fill="white" />
</svg>
